<svg width="160" height="19" viewBox="0 0 160 19" fill="none" xmlns="http://www.w3.org/2000/svg">
<path d="M6.2 5.76C7.368 5.76 8.4 6.008 9.296 6.504C10.192 7 10.888 7.72 11.384 8.664C11.896 9.592 12.152 10.704 12.152 12C12.152 13.296 11.896 14.416 11.384 15.36C10.888 16.288 10.192 17 9.296 17.496C8.4 17.992 7.368 18.24 6.2 18.24C5.032 18.24 4 17.992 3.104 17.496C2.208 17 1.504 16.288 0.992 15.36C0.48 14.416 0.224 13.296 0.224 12C0.224 10.704 0.48 9.592 0.992 8.664C1.504 7.72 2.208 7 3.104 6.504C4 6.008 5.032 5.76 6.2 5.76ZM6.2 7.776C5.144 7.776 4.312 8.144 3.704 8.88C3.096 9.6 2.792 10.64 2.792 12C2.792 13.36 3.096 14.408 3.704 15.144C4.312 15.864 5.144 16.224 6.2 16.224C7.256 16.224 8.08 15.864 8.672 15.144C9.28 14.408 9.584 13.36 9.584 12C9.584 10.64 9.28 9.6 8.672 8.88C8.08 8.144 7.256 7.776 6.2 7.776ZM18.8386 0.599999V14.64C18.8386 15.232 18.9426 15.64 19.1506 15.864C19.3586 16.088 19.7026 16.2 20.1826 16.2C20.4706 16.2 20.7106 16.184 20.9026 16.152C21.1106 16.104 21.3666 16.024 21.6706 15.912L21.3826 17.832C20.8226 18.104 20.1586 18.24 19.3906 18.24C18.3186 18.24 17.5266 17.968 17.0146 17.424C16.5186 16.88 16.2706 16.024 16.2706 14.856V0.599999H18.8386ZM26.0752 3.984C25.5152 3.984 25.0832 3.848 24.7792 3.576C24.4912 3.288 24.3472 2.888 24.3472 2.376C24.3472 1.864 24.4912 1.472 24.7792 1.2C25.0832 0.927999 25.5152 0.792 26.0752 0.792C26.6192 0.792 27.0352 0.927999 27.3232 1.2C27.6272 1.472 27.7792 1.864 27.7792 2.376C27.7792 2.888 27.6272 3.288 27.3232 3.576C27.0352 3.848 26.6192 3.984 26.0752 3.984ZM27.3472 6V18H24.7792V6H27.3472ZM40.2211 6H42.9091L38.1331 18H35.3251L30.5251 6H33.3571L36.7411 15.768L40.2211 6ZM51.2683 18.24C50.0683 18.24 49.0123 17.992 48.1003 17.496C47.2043 17 46.5003 16.288 45.9883 15.36C45.4763 14.416 45.2203 13.296 45.2203 12C45.2203 10.704 45.4683 9.592 45.9643 8.664C46.4763 7.72 47.1723 7 48.0523 6.504C48.9483 6.008 49.9723 5.76 51.1243 5.76C52.2923 5.76 53.2843 6 54.1003 6.48C54.9163 6.96 55.5403 7.616 55.9723 8.448C56.4043 9.28 56.6203 10.224 56.6203 11.28C56.6203 11.584 56.6123 11.864 56.5963 12.12C56.5803 12.376 56.5563 12.592 56.5243 12.768H47.7403C47.8523 13.888 48.2123 14.744 48.8203 15.336C49.4443 15.912 50.2443 16.2 51.2203 16.2C52.0203 16.2 52.6683 16.048 53.1643 15.744C53.6603 15.44 54.0523 15.016 54.3403 14.472L56.3803 15.432C55.9643 16.312 55.3003 17 54.3883 17.496C53.4923 17.992 52.4523 18.24 51.2683 18.24ZM51.0763 7.8C50.1963 7.8 49.4683 8.056 48.8923 8.568C48.3323 9.08 47.9723 9.824 47.8123 10.8H54.1243C54.0603 9.84 53.7563 9.104 53.2123 8.592C52.6683 8.064 51.9563 7.8 51.0763 7.8ZM60.8232 18V6H63.0072L63.2472 8.16C63.9032 6.56 65.1592 5.76 67.0152 5.76C67.2552 5.76 67.4952 5.784 67.7352 5.832C67.9752 5.864 68.1752 5.92 68.3352 6L67.9752 8.256C67.7992 8.192 67.5992 8.144 67.3752 8.112C67.1672 8.064 66.8792 8.04 66.5112 8.04C65.9992 8.04 65.5032 8.176 65.0232 8.448C64.5592 8.704 64.1672 9.104 63.8472 9.648C63.5432 10.176 63.3912 10.84 63.3912 11.64V18H60.8232ZM91.2978 6L86.7138 10.704L91.5858 18H88.6098L84.9138 12.36L82.5378 14.808V18H79.9698V0.599999H82.5378V11.856L88.2498 6H91.2978ZM97.418 0.599999V14.64C97.418 15.232 97.522 15.64 97.73 15.864C97.938 16.088 98.282 16.2 98.762 16.2C99.05 16.2 99.29 16.184 99.482 16.152C99.69 16.104 99.946 16.024 100.25 15.912L99.962 17.832C99.402 18.104 98.738 18.24 97.97 18.24C96.898 18.24 96.106 17.968 95.594 17.424C95.098 16.88 94.85 16.024 94.85 14.856V0.599999H97.418ZM104.655 3.984C104.095 3.984 103.663 3.848 103.359 3.576C103.071 3.288 102.927 2.888 102.927 2.376C102.927 1.864 103.071 1.472 103.359 1.2C103.663 0.927999 104.095 0.792 104.655 0.792C105.199 0.792 105.615 0.927999 105.903 1.2C106.207 1.472 106.359 1.864 106.359 2.376C106.359 2.888 106.207 3.288 105.903 3.576C105.615 3.848 105.199 3.984 104.655 3.984ZM105.927 6V18H103.359V6H105.927ZM110.904 18V6H113.184L113.304 8.016C113.72 7.248 114.272 6.68 114.96 6.312C115.664 5.944 116.408 5.76 117.192 5.76C118.056 5.76 118.848 5.96 119.568 6.36C120.304 6.744 120.856 7.328 121.224 8.112C121.48 7.584 121.832 7.144 122.28 6.792C122.728 6.44 123.224 6.184 123.768 6.024C124.312 5.848 124.848 5.76 125.376 5.76C126.144 5.76 126.864 5.92 127.536 6.24C128.208 6.56 128.752 7.048 129.168 7.704C129.584 8.36 129.793 9.2 129.793 10.224V18H127.224V10.632C127.224 9.64 126.984 8.936 126.504 8.52C126.04 8.088 125.456 7.872 124.752 7.872C123.92 7.872 123.192 8.184 122.568 8.808C121.944 9.416 121.632 10.304 121.632 11.472V18H119.064V10.632C119.064 9.64 118.824 8.936 118.344 8.52C117.88 8.088 117.296 7.872 116.592 7.872C116.112 7.872 115.632 8 115.152 8.256C114.672 8.512 114.272 8.912 113.952 9.456C113.632 10 113.472 10.72 113.472 11.616V18H110.904ZM139.926 18.24C138.726 18.24 137.67 17.992 136.758 17.496C135.862 17 135.158 16.288 134.646 15.36C134.134 14.416 133.878 13.296 133.878 12C133.878 10.704 134.126 9.592 134.622 8.664C135.134 7.72 135.83 7 136.71 6.504C137.606 6.008 138.63 5.76 139.782 5.76C140.95 5.76 141.942 6 142.758 6.48C143.574 6.96 144.198 7.616 144.63 8.448C145.062 9.28 145.278 10.224 145.278 11.28C145.278 11.584 145.27 11.864 145.254 12.12C145.238 12.376 145.214 12.592 145.182 12.768H136.398C136.51 13.888 136.87 14.744 137.478 15.336C138.102 15.912 138.902 16.2 139.878 16.2C140.678 16.2 141.326 16.048 141.822 15.744C142.318 15.44 142.71 15.016 142.998 14.472L145.038 15.432C144.622 16.312 143.958 17 143.046 17.496C142.15 17.992 141.11 18.24 139.926 18.24ZM139.734 7.8C138.854 7.8 138.126 8.056 137.55 8.568C136.99 9.08 136.63 9.824 136.47 10.8H142.782C142.718 9.84 142.414 9.104 141.87 8.592C141.326 8.064 140.614 7.8 139.734 7.8ZM154.041 18.24C152.841 18.24 151.745 18.008 150.753 17.544C149.761 17.08 148.977 16.424 148.401 15.576L150.177 14.04C150.529 14.696 151.033 15.224 151.689 15.624C152.361 16.008 153.161 16.2 154.089 16.2C154.825 16.2 155.409 16.072 155.841 15.816C156.273 15.56 156.489 15.2 156.489 14.736C156.489 14.432 156.385 14.168 156.177 13.944C155.985 13.704 155.609 13.52 155.049 13.392L152.529 12.864C151.249 12.608 150.337 12.192 149.793 11.616C149.249 11.04 148.977 10.32 148.977 9.456C148.977 8.8 149.169 8.192 149.553 7.632C149.953 7.072 150.521 6.624 151.257 6.288C151.993 5.936 152.881 5.76 153.921 5.76C155.105 5.76 156.121 5.976 156.969 6.408C157.833 6.824 158.489 7.424 158.937 8.208L157.161 9.696C156.841 9.056 156.385 8.584 155.793 8.28C155.217 7.96 154.609 7.8 153.969 7.8C153.185 7.8 152.577 7.944 152.145 8.232C151.729 8.504 151.521 8.864 151.521 9.312C151.521 9.616 151.641 9.896 151.881 10.152C152.121 10.392 152.553 10.576 153.177 10.704L155.913 11.28C157.065 11.504 157.873 11.888 158.337 12.432C158.817 12.96 159.057 13.608 159.057 14.376C159.057 15.528 158.609 16.464 157.713 17.184C156.817 17.888 155.593 18.24 154.041 18.24Z" fill="#CEDBE4"/>
</svg>
